<svg width="16" height="15" viewBox="0 0 16 15" fill="none" xmlns="http://www.w3.org/2000/svg">
<path d="M6.1421 2.95125C6.7976 1.31708 7.12536 0.5 7.68896 0.5C8.25257 0.5 8.58032 1.31708 9.23582 2.95125L9.26635 3.02735C9.63667 3.95057 9.82184 4.41218 10.1992 4.69275C10.5766 4.97333 11.072 5.01769 12.0627 5.10642L12.2418 5.12246C13.8634 5.26768 14.6741 5.34029 14.8476 5.85611C15.0211 6.37193 14.419 6.91972 13.2148 8.01529L12.8129 8.38094C12.2033 8.93554 11.8985 9.21283 11.7564 9.57628C11.7299 9.64407 11.7079 9.71353 11.6905 9.78421C11.5971 10.1631 11.6864 10.5654 11.8649 11.3699L11.9204 11.6204C12.2485 13.099 12.4125 13.8383 12.1261 14.1572C12.0191 14.2763 11.88 14.3621 11.7255 14.4043C11.312 14.5171 10.7249 14.0387 9.5508 13.082C8.77982 12.4538 8.39433 12.1396 7.95175 12.069C7.77766 12.0412 7.60026 12.0412 7.42617 12.069C6.98359 12.1396 6.5981 12.4538 5.82712 13.082C4.653 14.0387 4.06593 14.5171 3.65243 14.4043C3.49792 14.3621 3.35883 14.2763 3.25181 14.1572C2.96541 13.8383 3.12944 13.099 3.4575 11.6204L3.51306 11.3699C3.69157 10.5654 3.78082 10.1631 3.68744 9.78421C3.67003 9.71353 3.648 9.64407 3.6215 9.57628C3.47943 9.21283 3.17464 8.93554 2.56505 8.38094L2.16315 8.01529C0.958947 6.91972 0.356845 6.37193 0.530327 5.85611C0.703809 5.34029 1.51456 5.26768 3.13608 5.12246L3.31519 5.10642C4.30595 5.01769 4.80134 4.97333 5.17871 4.69275C5.55609 4.41218 5.74125 3.95057 6.11158 3.02734L6.1421 2.95125Z" fill="#1A1A1A" stroke="#1A1A1A"/>
</svg>
