<svg width="14" height="14" viewBox="0 0 14 14" fill="none" xmlns="http://www.w3.org/2000/svg">
<path d="M7.26807 1.12842C8.59525 1.22775 9.71825 2.05749 10.2378 3.21436C10.28 3.30833 10.3092 3.37346 10.3306 3.41943C10.3366 3.43241 10.3415 3.44292 10.3452 3.45068C10.3484 3.45078 10.3526 3.45061 10.3569 3.45068C10.3879 3.4513 10.4306 3.45166 10.4995 3.45166C11.8145 3.45166 12.8799 4.518 12.8804 5.83252L12.8687 6.07568C12.7494 7.25116 11.7752 8.17099 10.5776 8.20947L9.31982 6.95166H10.4995C11.1174 6.95166 11.6187 6.45044 11.6187 5.83252C11.6183 5.21474 11.117 4.71338 10.4995 4.71338C10.3943 4.71338 10.2673 4.71573 10.1675 4.70166C10.0101 4.67943 9.82767 4.63476 9.65186 4.521C9.47613 4.40717 9.36059 4.25897 9.27588 4.12451C9.22149 4.03801 9.15418 3.88188 9.08643 3.73096C8.72828 2.93387 7.92741 2.38037 6.99951 2.38037C6.07166 2.38052 5.27065 2.93386 4.9126 3.73096C4.84477 3.88204 4.77756 4.03807 4.72314 4.12451C4.63838 4.25906 4.52309 4.40714 4.34717 4.521C4.17125 4.63481 3.98898 4.67945 3.83154 4.70166C3.73169 4.7157 3.60473 4.71338 3.49951 4.71338C2.88215 4.71358 2.38074 5.21489 2.38037 5.83252C2.38037 6.45028 2.88174 6.95146 3.49951 6.95166H4.6792L3.42041 8.20947C2.22362 8.17018 1.24954 7.25064 1.13037 6.07568L1.11865 5.83252C1.1191 4.5181 2.18473 3.45187 3.49951 3.45166L3.64209 3.45068C3.64602 3.45061 3.64988 3.45075 3.65283 3.45068C3.65664 3.44284 3.66225 3.43276 3.66846 3.41943C3.68987 3.37344 3.71897 3.30849 3.76123 3.21436C4.31539 1.98019 5.55651 1.1188 6.99951 1.11865L7.26807 1.12842Z" fill="#1A1A1A"/>
<path d="M6.99984 7L6.55354 6.5537L6.99984 6.1074L7.44614 6.5537L6.99984 7ZM7.631 12.25C7.631 12.5986 7.34842 12.8812 6.99984 12.8812C6.65126 12.8812 6.36867 12.5986 6.36867 12.25L6.99984 12.25L7.631 12.25ZM4.6665 9.33333L4.2202 8.88703L6.55354 6.5537L6.99984 7L7.44614 7.4463L5.1128 9.77963L4.6665 9.33333ZM6.99984 7L7.44614 6.5537L9.77947 8.88703L9.33317 9.33333L8.88687 9.77963L6.55354 7.4463L6.99984 7ZM6.99984 7L7.631 7L7.631 12.25L6.99984 12.25L6.36867 12.25L6.36867 7L6.99984 7Z" fill="#1A1A1A"/>
</svg>
