<svg width="24" height="24" viewBox="0 0 24 24" fill="none" xmlns="http://www.w3.org/2000/svg">
<path d="M6.00013 7.6365C6.90387 7.6365 7.6365 6.90387 7.6365 6.00013C7.6365 5.09639 6.90387 4.36377 6.00013 4.36377C5.09639 4.36377 4.36377 5.09639 4.36377 6.00013C4.36377 6.90387 5.09639 7.6365 6.00013 7.6365Z" fill="#1A1A1A"/>
<path d="M4.36377 9.81808C4.36377 9.21559 4.85219 8.72717 5.45468 8.72717H6.54559C7.14807 8.72717 7.6365 9.21558 7.6365 9.81808V18.5454C7.6365 19.1479 7.14807 19.6363 6.54559 19.6363H5.45468C4.85219 19.6363 4.36377 19.1479 4.36377 18.5454V9.81808Z" fill="#1A1A1A"/>
<path d="M10.9093 19.6363H12.0002C12.6027 19.6363 13.0911 19.1479 13.0911 18.5454V13.6363C13.0911 11.9999 16.3638 10.909 16.3638 13.0908V18.5458C16.3638 19.1483 16.8522 19.6363 17.4547 19.6363H18.5456C19.1481 19.6363 19.6365 19.1479 19.6365 18.5454V11.9999C19.6365 9.81808 18.0002 8.72717 15.8184 8.72717C13.6365 8.72717 13.0911 10.3635 13.0911 10.3635V9.81808C13.0911 9.21558 12.6027 8.72717 12.0002 8.72717H10.9093C10.3068 8.72717 9.81836 9.21559 9.81836 9.81808V18.5454C9.81836 19.1479 10.3068 19.6363 10.9093 19.6363Z" fill="#1A1A1A"/>
<path fill-rule="evenodd" clip-rule="evenodd" d="M20.7273 0C22.5348 0 24 1.46525 24 3.27273V20.7273C24 22.5348 22.5348 24 20.7273 24H3.27273C1.46525 24 0 22.5348 0 20.7273V3.27273C0 1.46525 1.46525 0 3.27273 0H20.7273ZM20.7273 2.18182C21.3298 2.18182 21.8182 2.67024 21.8182 3.27273V20.7273C21.8182 21.3298 21.3298 21.8182 20.7273 21.8182H3.27273C2.67024 21.8182 2.18182 21.3298 2.18182 20.7273V3.27273C2.18182 2.67024 2.67024 2.18182 3.27273 2.18182H20.7273Z" fill="#1A1A1A"/>
</svg>
