<svg width="18" height="20" viewBox="0 0 18 20" fill="none" xmlns="http://www.w3.org/2000/svg">
<path d="M13.5838 0.266172L3.50374 10.4481C3.40452 10.5477 3.32991 10.6694 3.28594 10.8035L1.84592 15.1672C1.80086 15.3039 1.78859 15.4494 1.81013 15.5918C1.83167 15.7342 1.8864 15.8694 1.96981 15.9862C2.05323 16.1031 2.16293 16.1982 2.28989 16.2638C2.41685 16.3294 2.55742 16.3636 2.70003 16.3636C2.79666 16.3635 2.89266 16.3478 2.98443 16.3172L7.30448 14.8627C7.43702 14.8178 7.55747 14.7425 7.65638 14.6427L17.7365 4.46076C17.9052 4.29028 18 4.05909 18 3.81802C18 3.57696 17.9052 3.34577 17.7365 3.17529L14.8565 0.266172C14.6877 0.0957422 14.4588 0 14.2202 0C13.9815 0 13.7526 0.0957422 13.5838 0.266172ZM6.53407 13.2054L4.12294 14.0172L4.92665 11.5817L14.2202 2.19437L15.8276 3.81802L6.53407 13.2054ZM0.90001 18.1818H16.2002C16.4389 18.1818 16.6678 18.2776 16.8366 18.4481C17.0054 18.6186 17.1002 18.8498 17.1002 19.0909C17.1002 19.332 17.0054 19.5632 16.8366 19.7337C16.6678 19.9042 16.4389 20 16.2002 20H0.90001C0.661312 20 0.432391 19.9042 0.263607 19.7337C0.0948221 19.5632 0 19.332 0 19.0909C0 18.8498 0.0948221 18.6186 0.263607 18.4481C0.432391 18.2776 0.661312 18.1818 0.90001 18.1818Z" fill="white"/>
</svg>
