<svg width="17" height="17" viewBox="0 0 17 17" fill="none" xmlns="http://www.w3.org/2000/svg">
<path fill-rule="evenodd" clip-rule="evenodd" d="M4.8215 0.100813C3.48431 0.161147 2.32531 0.488072 1.38944 1.41999C0.450303 2.3568 0.127438 3.52039 0.0669533 4.84366C0.0293549 5.66959 -0.190501 11.9093 0.447035 13.5456C0.876962 14.6496 1.72372 15.4984 2.83777 15.9297C3.35761 16.1319 3.95102 16.2688 4.8215 16.3087C12.1 16.6381 14.7981 16.4588 15.9359 13.5456C16.1377 13.0271 16.2767 12.4342 16.3151 11.5659C16.6478 4.26871 16.2612 2.687 14.9927 1.41999C13.9865 0.41632 12.803 -0.266898 4.8215 0.100813ZM4.88851 14.8412C4.09159 14.8053 3.65922 14.6725 3.37069 14.5608C2.64488 14.2787 2.09971 13.7358 1.81936 13.0142C1.33385 11.7708 1.49488 5.86541 1.5382 4.90984C1.5807 3.97385 1.77032 3.11841 2.43074 2.458C3.2481 1.64267 4.3041 1.24308 11.4944 1.56759C12.4327 1.60998 13.2901 1.79922 13.9522 2.458C14.7695 3.27332 15.1749 4.33746 14.8447 11.5001C14.8087 12.295 14.6755 12.7264 14.5635 13.0142C13.8238 14.9098 12.1221 15.173 4.88851 14.8412ZM11.5737 3.85218C11.5737 4.39193 12.0126 4.83083 12.5545 4.83083C13.0964 4.83083 13.5361 4.39193 13.5361 3.85218C13.5361 3.31244 13.0964 2.87393 12.5545 2.87393C12.0126 2.87393 11.5737 3.31244 11.5737 3.85218ZM3.99433 8.20437C3.99433 10.5166 5.87344 12.3913 8.19145 12.3913C10.5095 12.3913 12.3886 10.5166 12.3886 8.20437C12.3886 5.89211 10.5095 4.01863 8.19145 4.01863C5.87344 4.01863 3.99433 5.89211 3.99433 8.20437ZM5.46721 8.20437C5.46721 6.70418 6.6867 5.48701 8.19145 5.48701C9.6962 5.48701 10.9157 6.70418 10.9157 8.20437C10.9157 9.70539 9.6962 10.9229 8.19145 10.9229C6.6867 10.9229 5.46721 9.70539 5.46721 8.20437Z" fill="#1A1A1A"/>
</svg>
