<svg width="11" height="11" viewBox="0 0 11 11" fill="none" xmlns="http://www.w3.org/2000/svg">
<path d="M4.36522 2.85225C4.70373 2.00837 4.87298 1.58643 5.16402 1.58643C5.45507 1.58643 5.62432 2.00837 5.96282 2.85225L5.97858 2.89155C6.16982 3.3683 6.26544 3.60667 6.46031 3.75156C6.65519 3.89645 6.91101 3.91936 7.42264 3.96518L7.51513 3.97347C8.35248 4.04846 8.77115 4.08595 8.86074 4.35232C8.95033 4.61869 8.6394 4.90157 8.01755 5.46732L7.81001 5.65614C7.49522 5.94253 7.33782 6.08573 7.26446 6.27341C7.25078 6.30842 7.2394 6.34429 7.2304 6.38079C7.18218 6.57644 7.22827 6.78418 7.32046 7.19965L7.34915 7.32898C7.51856 8.09253 7.60326 8.47431 7.45537 8.63898C7.4001 8.70052 7.32828 8.74482 7.24848 8.76659C7.03495 8.82486 6.73179 8.57783 6.12547 8.08376C5.72734 7.75934 5.52828 7.59713 5.29973 7.56064C5.20983 7.54629 5.11822 7.54629 5.02832 7.56064C4.79977 7.59713 4.6007 7.75934 4.20257 8.08376C3.59625 8.57783 3.29309 8.82486 3.07956 8.76659C2.99977 8.74482 2.92794 8.70052 2.87268 8.63898C2.72478 8.47431 2.80949 8.09253 2.9789 7.32897L3.00759 7.19965C3.09977 6.78418 3.14586 6.57644 3.09764 6.38079C3.08864 6.34429 3.07727 6.30842 3.06358 6.27341C2.99022 6.08573 2.83283 5.94253 2.51804 5.65614L2.31049 5.46732C1.68864 4.90157 1.37772 4.61869 1.46731 4.35232C1.55689 4.08595 1.97557 4.04846 2.81291 3.97347L2.90541 3.96518C3.41704 3.91936 3.67285 3.89645 3.86773 3.75156C4.06261 3.60667 4.15822 3.3683 4.34946 2.89155L4.36522 2.85225Z" fill="#1A1A1A" stroke="#1A1A1A" stroke-width="0.5164"/>
</svg>
