<svg width="16" height="16" viewBox="0 0 16 16" fill="none" xmlns="http://www.w3.org/2000/svg">
<path d="M9.99992 2H5.99992C4.52716 2 3.33325 3.19391 3.33325 4.66667V10" stroke="#1A1A1A" stroke-width="1.5"/>
<path d="M9.00024 4.75C9.79937 4.75 10.336 4.75106 10.7424 4.79688C11.1338 4.841 11.311 4.91902 11.428 5.00879C11.5144 5.0752 11.5921 5.15276 11.6584 5.23926C11.7481 5.35621 11.8253 5.53296 11.8694 5.92383C11.9152 6.33031 11.9163 6.86769 11.9163 7.66699V10.333C11.9163 11.1323 11.9152 11.6697 11.8694 12.0762C11.8253 12.467 11.7481 12.6438 11.6584 12.7607C11.5921 12.8472 11.5144 12.9248 11.428 12.9912C11.311 13.081 11.1338 13.159 10.7424 13.2031C10.336 13.2489 9.79937 13.25 9.00024 13.25C8.20094 13.25 7.66357 13.249 7.25708 13.2031C6.86595 13.159 6.68946 13.081 6.57251 12.9912C6.48592 12.9248 6.4085 12.8473 6.34204 12.7607C6.2523 12.6438 6.17425 12.4673 6.13013 12.0762C6.0843 11.6697 6.08325 11.1323 6.08325 10.333V7.66699L6.08911 6.64844C6.09512 6.36339 6.10721 6.12715 6.13013 5.92383C6.17425 5.53269 6.2523 5.35621 6.34204 5.23926C6.4085 5.15267 6.48592 5.07525 6.57251 5.00879C6.68946 4.91905 6.86595 4.841 7.25708 4.79688C7.66356 4.75105 8.20094 4.75 9.00024 4.75Z" stroke="#1A1A1A" stroke-width="1.5"/>
</svg>
