<svg width="36" height="36" viewBox="0 0 36 36" fill="none" xmlns="http://www.w3.org/2000/svg">
<path d="M18 31.5C16.2272 31.5 14.4717 31.1508 12.8338 30.4724C11.1959 29.7939 9.70765 28.7995 8.45406 27.5459C7.20047 26.2923 6.20606 24.8041 5.52763 23.1662C4.84919 21.5283 4.5 19.7728 4.5 18C4.5 16.2272 4.84919 14.4717 5.52763 12.8338C6.20607 11.1959 7.20047 9.70765 8.45406 8.45406C9.70765 7.20047 11.1959 6.20606 12.8338 5.52763C14.4717 4.84919 16.2272 4.5 18 4.5C19.7728 4.5 21.5283 4.84919 23.1662 5.52763C24.8041 6.20607 26.2924 7.20047 27.5459 8.45406C28.7995 9.70765 29.7939 11.1959 30.4724 12.8338C31.1508 14.4717 31.5 16.2272 31.5 18C31.5 19.7728 31.1508 21.5283 30.4724 23.1662C29.7939 24.8041 28.7995 26.2924 27.5459 27.5459C26.2923 28.7995 24.8041 29.7939 23.1662 30.4724C21.5283 31.1508 19.7728 31.5 18 31.5L18 31.5Z" stroke="#1A1A1A" stroke-width="2" stroke-linecap="round"/>
<path d="M13.5 13.5L22.5 22.5" stroke="#1A1A1A" stroke-width="2" stroke-linecap="round"/>
<path d="M22.5 13.5L13.5 22.5" stroke="#1A1A1A" stroke-width="2" stroke-linecap="round"/>
</svg>
