<svg width="32" height="32" viewBox="0 0 32 32" fill="none" xmlns="http://www.w3.org/2000/svg">
<path d="M2.6665 16L1.70543 15.2312L1.09035 16L1.70543 16.7689L2.6665 16ZM14.6665 17.2308C15.3462 17.2308 15.8973 16.6798 15.8973 16C15.8973 15.3203 15.3462 14.7693 14.6665 14.7693V16V17.2308ZM7.99984 9.33337L7.03877 8.56452L1.70543 15.2312L2.6665 16L3.62757 16.7689L8.96091 10.1022L7.99984 9.33337ZM2.6665 16L1.70543 16.7689L7.03877 23.4356L7.99984 22.6667L8.96091 21.8979L3.62757 15.2312L2.6665 16ZM2.6665 16V17.2308H14.6665V16V14.7693H2.6665V16Z" fill="white"/>
<path d="M13.3335 10.8425V9.50376C13.3335 7.51196 13.3335 6.51606 13.9168 5.82745C14.5002 5.13885 15.4825 4.97512 17.4472 4.64767L20.7349 4.09973C24.7264 3.43448 26.7221 3.10186 28.0278 4.20794C29.3335 5.31403 29.3335 7.33731 29.3335 11.3839V20.6161C29.3335 24.6626 29.3335 26.6859 28.0278 27.792C26.7221 28.8981 24.7264 28.5654 20.7349 27.9002L17.4472 27.3522C15.4825 27.0248 14.5002 26.8611 13.9168 26.1725C13.3335 25.4839 13.3335 24.488 13.3335 22.4962V21.4212" stroke="white" stroke-width="2.46154"/>
</svg>
