<svg width="74" height="70" viewBox="0 0 74 70" fill="none" xmlns="http://www.w3.org/2000/svg">
<path d="M32.1236 50.2454C29.9841 50.2454 28.4672 49.6387 27.5731 48.4252C26.7109 47.1798 26.2798 45.3117 26.2798 42.8209C26.2798 41.2882 26.5193 39.0049 26.9983 35.9713C27.4773 32.9376 28.1639 28.962 29.058 24.0443C28.3235 24.1401 27.3815 24.2838 26.2319 24.4754C25.1143 24.667 23.9806 24.8745 22.831 25.0981C21.6815 25.2897 20.7235 25.4813 19.9571 25.6729C19.7655 25.0661 19.6537 24.4754 19.6218 23.9006C19.5898 23.3258 19.5739 22.8787 19.5739 22.5594C19.5739 20.7392 19.8932 19.2543 20.5319 18.1047C21.2025 16.9551 22.0806 16.1089 23.1663 15.566C24.2521 15.0232 25.4336 14.7517 26.7109 14.7517C28.3395 14.7517 29.9521 14.9114 31.5488 15.2307C33.1454 15.5181 34.7421 15.8215 36.3387 16.1408C37.9673 16.4602 39.6279 16.6518 41.3203 16.7156C42.5018 16.4921 43.8111 16.2047 45.2481 15.8534C46.717 15.5022 47.9943 15.1669 49.0801 14.8475C49.2717 15.4543 49.3834 16.045 49.4154 16.6198C49.4473 17.1946 49.4633 17.6417 49.4633 17.961C49.4633 19.7812 49.096 21.2661 48.3616 22.4157C47.659 23.5653 46.701 24.4115 45.4876 24.9544C44.3061 25.4972 42.9968 25.7687 41.5598 25.7687C41.1447 25.7687 40.7455 25.7687 40.3623 25.7687C39.9791 25.7367 39.6119 25.7048 39.2606 25.6729C38.9732 27.1099 38.6699 28.6107 38.3505 30.1754C38.0631 31.7402 37.7917 33.257 37.5362 34.7259C37.2808 36.1629 37.0572 37.4562 36.8656 38.6058C36.706 39.7234 36.6261 40.5697 36.6261 41.1445C36.6261 42.773 36.7379 44.1462 36.9614 45.2638C37.2169 46.3815 37.5841 47.3235 38.0631 48.0899C36.1471 49.5269 34.1673 50.2454 32.1236 50.2454Z" fill="white"/>
<rect x="2" y="2" width="65.4878" height="60.9756" rx="16.0488" stroke="white" stroke-width="4"/>
<circle cx="59.5611" cy="55.0489" r="14.439" fill="white"/>
<circle cx="59.5607" cy="55.0488" r="10.8293" fill="white"/>
<path d="M59.1958 59.2353L63.701 54.6969C63.0878 54.4398 62.3616 54.0175 61.6748 53.3256C60.9878 52.6336 60.5686 51.9019 60.3134 51.2842L55.8081 55.8226C55.4566 56.1768 55.2808 56.3539 55.1296 56.5491C54.9513 56.7795 54.7984 57.0287 54.6736 57.2924C54.5679 57.5159 54.4892 57.7535 54.332 58.2287L53.5029 60.7344C53.4255 60.9682 53.4859 61.226 53.6589 61.4003C53.832 61.5746 54.0879 61.6355 54.32 61.5575L56.8074 60.7222C57.279 60.5639 57.5149 60.4847 57.7368 60.3782C57.9986 60.2525 58.2459 60.0985 58.4746 59.9188C58.6684 59.7665 58.8442 59.5894 59.1958 59.2353Z" fill="#1A1A1A"/>
<path d="M64.9509 53.4376C65.8864 52.4953 65.8864 50.9674 64.9509 50.025C64.0154 49.0826 62.4987 49.0826 61.5633 50.025L61.0229 50.5693C61.0304 50.5918 61.038 50.6147 61.046 50.6378C61.244 51.2128 61.6177 51.9667 62.3207 52.6748C63.0236 53.383 63.772 53.7594 64.3429 53.9589C64.3657 53.9669 64.3882 53.9746 64.4105 53.982L64.9509 53.4376Z" fill="#1A1A1A"/>
</svg>
