<svg width="16" height="16" viewBox="0 0 16 16" fill="none" xmlns="http://www.w3.org/2000/svg">
<path d="M1.3335 7.99984L0.630714 7.43761L0.180934 7.99984L0.630714 8.56206L1.3335 7.99984ZM7.3335 8.89984C7.83055 8.89984 8.2335 8.49689 8.2335 7.99984C8.2335 7.50278 7.83055 7.09984 7.3335 7.09984V7.99984V8.89984ZM4.00016 4.6665L3.29738 4.10428L0.630714 7.43761L1.3335 7.99984L2.03628 8.56206L4.70294 5.22873L4.00016 4.6665ZM1.3335 7.99984L0.630714 8.56206L3.29738 11.8954L4.00016 11.3332L4.70294 10.7709L2.03628 7.43761L1.3335 7.99984ZM1.3335 7.99984V8.89984H7.3335V7.99984V7.09984H1.3335V7.99984Z" fill="white"/>
<path d="M6.6665 5.42145V5.29134C6.6665 4.41066 6.6665 3.97032 6.81358 3.6083C6.97398 3.2135 7.25628 2.88025 7.61935 2.65713C7.95226 2.45254 8.38661 2.38014 9.25531 2.23536C11.0132 1.94239 11.8921 1.7959 12.5858 2.01918C13.3406 2.26216 13.9685 2.79407 14.3322 3.49866C14.6665 4.14617 14.6665 5.03722 14.6665 6.81933V9.181C14.6665 10.9631 14.6665 11.8542 14.3322 12.5017C13.9685 13.2062 13.3406 13.7382 12.5858 13.9811C11.8921 14.2044 11.0128 14.0579 9.25409 13.7648C8.38672 13.6202 7.95304 13.5479 7.62064 13.344C7.25652 13.1206 6.9735 12.7865 6.81301 12.3906C6.6665 12.0292 6.6665 11.5897 6.6665 10.7108" stroke="white" stroke-width="1.8"/>
</svg>
